# xmcd
#
# Track frame offsets:
#	150
#	14924
#	31129
#	52251
#	68288
#	86972
#	102630
#	123104
#	139616
#	158242
#
# Disc length: 2378 seconds
#
# Revision: 1
# Processed by: cddbd v1.4PL0 Copyright (c) Steve Scherf et al.
# Submitted via: audiograbber 1.81.01
#
DISCID=8709480a
DTITLE=Quinn Golden - On Q
DYEAR=2002
DGENRE=Blues
TTITLE0=Do You Wanna Freak
TTITLE1=Party Woman
TTITLE2=Ketchup On My Pants
TTITLE3=My Loss Is His Gain
TTITLE4=Junk In Yo Trunk
TTITLE5=Wake Up Call
TTITLE6=Dance Party 2002
TTITLE7=I Can't Give It Up
TTITLE8=You're My Angel
TTITLE9=You Don't Miss Your Water
EXTD=Ecko Records 1043\n© 2002
EXTT0=
EXTT1=
EXTT2=
EXTT3=
EXTT4=
EXTT5=
EXTT6=
EXTT7=
EXTT8=
EXTT9=
PLAYORDER=
